<?xml version="1.0" standalone="no"?>
<!DOCTYPE svg PUBLIC "-//W3C//DTD SVG 20010904//EN"
 "http://www.w3.org/TR/2001/REC-SVG-20010904/DTD/svg10.dtd">
<svg version="1.0" xmlns="http://www.w3.org/2000/svg"
 width="512.000000pt" height="512.000000pt" viewBox="0 0 512.000000 512.000000"
 preserveAspectRatio="xMidYMid meet">
<metadata>
Created by potrace 1.14, written by Peter Selinger 2001-2017
</metadata>
<g transform="translate(0.000000,512.000000) scale(0.100000,-0.100000)"
fill="#000000" stroke="none">
<path d="M2639 5096 c-127 -69 -2219 -1281 -2247 -1303 -18 -13 -48 -48 -67
-76 -67 -102 -65 -57 -65 -1227 0 -1004 1 -1057 19 -1095 10 -22 29 -50 43
-62 l24 -23 252 145 c138 80 257 145 264 145 6 0 59 -27 116 -61 57 -33 110
-58 118 -55 17 7 1506 866 1516 875 4 3 -34 30 -85 58 -51 29 -100 58 -110 65
-16 12 10 29 233 157 l250 144 0 373 0 374 48 0 c89 0 197 85 248 195 33 71
44 157 44 335 l0 156 -101 184 c-55 102 -132 245 -170 317 l-69 133 0 90 c0
84 -2 93 -25 116 -64 63 -162 80 -236 40z m-84 -769 l200 -362 5 -161 c5 -156
6 -162 33 -197 l27 -36 0 -339 0 -339 -152 -91 c-168 -98 -1113 -644 -1202
-693 -31 -16 -152 -86 -268 -154 -449 -260 -742 -430 -750 -433 -4 -2 -8 343
-8 766 l0 771 93 -53 c50 -29 138 -79 194 -112 l103 -59 0 -136 c0 -124 2
-139 25 -185 48 -95 154 -130 250 -84 67 32 142 112 179 189 l31 66 3 210 3
210 -207 373 c-114 205 -205 374 -203 376 2 2 110 65 239 140 213 124 236 135
247 120 7 -10 100 -176 208 -370 l195 -353 0 -146 c0 -158 5 -178 57 -227 113
-107 296 -31 387 161 l31 66 3 212 3 211 -206 373 c-114 205 -203 375 -199
376 5 2 113 64 239 138 127 74 232 134 235 134 3 0 95 -163 205 -362z"/>
<path d="M2867 2335 c-87 -50 -159 -96 -159 -101 -1 -12 103 -74 122 -73 25 0
315 173 315 187 0 7 -27 28 -60 46 l-60 34 -158 -93z"/>
<path d="M3025 2241 c-82 -49 -150 -94 -150 -101 0 -6 36 -33 81 -59 l81 -48
161 91 c89 50 162 96 162 101 0 11 -156 105 -174 104 -6 0 -78 -40 -161 -88z"/>
<path d="M2508 2129 c-87 -50 -158 -96 -158 -103 0 -6 27 -26 61 -45 l60 -33
157 90 c86 49 157 95 157 102 0 11 -98 78 -115 80 -3 0 -76 -41 -162 -91z"/>
<path d="M3293 2154 c-51 -30 -93 -59 -93 -63 0 -5 41 -32 90 -60 50 -29 90
-56 90 -61 0 -4 -65 -45 -145 -90 -163 -92 -161 -88 -67 -141 31 -18 66 -38
77 -45 18 -11 48 4 275 134 140 81 255 152 254 157 -1 11 -362 225 -379 225
-5 -1 -52 -26 -102 -56z"/>
<path d="M2668 2037 c-87 -51 -157 -97 -158 -102 0 -9 154 -105 169 -105 14 0
315 177 318 187 3 9 -162 117 -170 112 -1 0 -73 -42 -159 -92z"/>
<path d="M3008 1987 c-87 -50 -158 -96 -158 -102 0 -9 124 -88 161 -103 11 -5
329 179 329 189 0 7 -90 63 -155 97 -17 8 -46 -5 -177 -81z"/>
<path d="M2145 1920 c-82 -49 -150 -94 -150 -100 0 -6 27 -27 60 -45 l60 -34
160 92 c88 51 160 96 160 101 0 12 -105 75 -125 75 -8 0 -82 -40 -165 -89z"/>
<path d="M3648 1878 c-87 -51 -158 -95 -158 -99 0 -4 39 -30 87 -58 77 -45 90
-49 108 -37 11 7 82 48 158 90 75 43 137 84 137 91 0 11 -152 105 -169 105 -3
0 -77 -42 -163 -92z"/>
<path d="M2308 1827 c-87 -51 -158 -96 -158 -102 0 -5 39 -32 85 -58 l85 -48
161 91 c88 51 158 97 156 104 -3 10 -154 105 -167 105 -3 0 -76 -41 -162 -92z"/>
<path d="M2638 1777 c-87 -50 -158 -95 -158 -98 0 -3 21 -18 48 -32 26 -15 65
-37 87 -51 l40 -24 159 92 c88 50 161 96 163 101 3 10 -155 105 -173 105 -5 0
-80 -42 -166 -93z"/>
<path d="M1791 1715 c-164 -96 -172 -102 -151 -115 8 -5 38 -22 65 -38 l50
-30 159 92 c87 51 159 96 160 101 1 11 -104 75 -124 74 -8 0 -80 -38 -159 -84z"/>
<path d="M2898 1687 c-87 -51 -157 -96 -158 -102 0 -5 38 -32 85 -59 l85 -48
158 89 c86 50 157 96 157 104 0 10 -160 113 -168 108 -1 0 -73 -42 -159 -92z"/>
<path d="M2944 1473 c-280 -162 -515 -300 -522 -307 -11 -11 -4 -19 40 -43 29
-17 69 -40 89 -52 l35 -21 515 298 c302 175 514 303 514 312 0 7 -37 35 -81
61 l-82 47 -508 -295z"/>
<path d="M1947 1617 c-86 -50 -156 -96 -154 -102 2 -5 40 -31 85 -57 l81 -48
161 91 c88 50 160 97 160 103 0 9 -158 107 -171 106 -2 0 -75 -42 -162 -93z"/>
<path d="M2280 1570 c-85 -50 -156 -94 -158 -98 -1 -5 19 -20 45 -35 27 -15
66 -37 88 -51 l40 -24 159 92 c88 51 161 97 163 102 3 9 -156 104 -173 104 -5
0 -79 -41 -164 -90z"/>
<path d="M1428 1507 c-87 -51 -157 -97 -158 -103 0 -5 28 -25 63 -44 l63 -34
163 93 c130 75 160 96 151 106 -10 13 -116 76 -122 74 -2 0 -74 -42 -160 -92z"/>
<path d="M2541 1480 c-85 -49 -158 -93 -163 -98 -6 -6 23 -29 77 -61 48 -28
89 -51 91 -51 11 0 324 185 324 192 0 5 -166 109 -173 108 -1 0 -71 -41 -156
-90z"/>
<path d="M1585 1410 c-82 -49 -151 -93 -152 -97 -3 -9 155 -103 172 -103 19 0
325 183 319 191 -9 15 -157 99 -174 98 -8 0 -82 -40 -165 -89z"/>
<path d="M1928 1366 c-87 -50 -158 -96 -158 -102 0 -10 150 -104 166 -104 14
0 324 182 324 190 0 6 -119 80 -170 105 -3 2 -76 -38 -162 -89z"/>
<path d="M1068 1297 c-87 -50 -158 -95 -158 -98 0 -6 116 -79 126 -79 12 0
324 184 324 191 0 8 -116 79 -128 78 -4 0 -78 -41 -164 -92z"/>
<path d="M2175 1271 c-82 -49 -151 -93 -152 -98 -4 -11 145 -103 167 -103 21
0 320 174 320 186 0 13 -155 105 -174 103 -6 0 -78 -40 -161 -88z"/>
<path d="M1244 1213 c-82 -47 -155 -91 -162 -98 -12 -10 2 -22 74 -64 48 -28
90 -50 94 -49 33 14 320 184 320 189 0 7 -91 63 -156 97 -18 9 -43 -2 -170
-75z"/>
<path d="M1503 1122 c-122 -70 -221 -131 -219 -137 5 -17 160 -105 176 -99 42
15 440 250 437 259 -3 9 -154 104 -167 105 -3 0 -105 -57 -227 -128z"/>
<path d="M1731 1011 c-129 -76 -236 -142 -238 -147 -2 -5 35 -31 82 -58 65
-37 90 -47 104 -40 83 41 471 272 471 281 0 13 -152 104 -172 102 -7 -1 -118
-63 -247 -138z"/>
<path d="M2216 1052 c-82 -48 -151 -92 -153 -98 -4 -13 145 -104 168 -104 20
1 312 173 316 186 4 11 -150 104 -171 104 -6 -1 -78 -40 -160 -88z"/>
<path d="M1858 846 c-87 -50 -157 -95 -158 -101 0 -9 157 -105 171 -105 13 0
313 178 317 188 2 8 -162 115 -171 111 -1 -1 -73 -42 -159 -93z"/>
</g>
</svg>
